[img]http://img828.imageshack.us/img828/9125/3ce150caf3.jpg[/img]
[code]

StreetDance 3D 2010 KORSUB DVDRiP AAC-MAGNET 
*****************************************************
*****************************************************

TiTLE...... StreetDance

YEAR....... 2010                                 

GENRE...... Drama

RUNTiME.... 1h 38mn

IMDB....... http://www.imdb.com/title/tt1447972/ 

Language... English                                                                          

Video
ID                               : 1
Format                           : MPEG-4 Visual
Format profile                   : Simple@L1
Format settings, BVOP            : No
Format settings, QPel            : No
Format settings, GMC             : No warppoints
Format settings, Matrix          : Default (H.263)
Codec ID                         : 20
Duration                         : 1h 38mn
Bit rate mode                    : Variable
Bit rate                         : 862 Kbps
Maximum bit rate                 : 2 234 Kbps
Width                            : 704 pixels
Height                           : 460 pixels
Display aspect ratio             : 1.855
Original display aspect ratio    : 4.709
Frame rate mode                  : Variable
Frame rate                       : 23.976 fps
Minimum frame rate               : 23.974 fps
Maximum frame rate               : 23.981 fps
Color space                      : YUV
Chroma subsampling               : 4:2:0
Bit depth                        : 8 bits
Scan type                        : Progressive
Bits/(Pixel*Frame)               : 0.111
Stream size                      : 607 MiB (87%)
Writing library                  : Lavc52.66.0
Encoded date                     : UTC 2010-08-26 17:02:25
Tagged date                      : UTC 2010-08-26 17:13:33

Audio
ID                               : 2
Format                           : AAC
Format/Info                      : Advanced Audio Codec
Format version                   : Version 4
Format profile                   : LC
Format settings, SBR             : No
Codec ID                         : 40
Duration                         : 1h 38mn
Bit rate mode                    : Variable
Bit rate                         : 128 Kbps
Maximum bit rate                 : 161 Kbps
Channel(s)                       : 2 channels
Channel positions                : Front: L R
Sampling rate                    : 48.0 KHz
Stream size                      : 90.0 MiB (13%)
Encoded date                     : UTC 2010-08-26 17:02:25
Tagged date                      : UTC 2010-08-26 17:13:33

****************************************************                                

Looking for these,syncers,cammers,silver supplier.....Have anything to offer?

Contact -  magnet@madsolutions.eu          

*****************************************************
*****************************************************

*****************************************************
Charlotte Rampling	... Helena
Patrick Baladi	... Mr Harding
Rachel McDowall	... Isabella
Jeremy Sheffield	... Michael
Eleanor Bron	... Madame Fleurie
Frank Harper	... Fred
Nichola Burley	... Carly

In order to win the Street Dance Championships, a dance crew is forced to work with ballet dancers from the Royal Dance School in exchange for rehearsal space.
[/code]
Screens:
[img]http://img841.imageshack.us/img841/2702/streetdance3d2010korsub.png[/img]
[img]http://img842.imageshack.us/img842/2702/streetdance3d2010korsub.png[/img]
[img]http://img186.imageshack.us/img186/2702/streetdance3d2010korsub.png[/img]